<?xml version="1.0" standalone="no"?><!DOCTYPE svg PUBLIC "-//W3C//DTD SVG 1.1//EN" "http://www.w3.org/Graphics/SVG/1.1/DTD/svg11.dtd"><svg t="1686745080128" class="icon" viewBox="0 0 1024 1024" version="1.1" xmlns="http://www.w3.org/2000/svg" p-id="10198" xmlns:xlink="http://www.w3.org/1999/xlink" width="200" height="200"><path d="M995.84 716.8c0 69.27872-56.16128 125.44-125.44 125.44s-125.44-56.16128-125.44-125.44 56.16128-125.44 125.44-125.44c30.1056 0 57.73824 10.60864 79.36 28.288V308.1728l-670.72 95.81568V870.4c0 69.27872-56.16128 125.44-125.44 125.44S28.16 939.67872 28.16 870.4s56.16128-125.44 125.44-125.44c30.1056 0 57.73824 10.60864 79.36 28.288V223.60576a74.24 74.24 0 0 1 63.744-73.49248l614.4-87.77216c40.58624-5.80096 78.19264 22.40512 83.98848 62.99136a74.24 74.24 0 0 1 0.74752 10.50112V716.8z m-716.8-359.36768l670.72-95.81568V135.8336a28.16 28.16 0 0 0-32.14336-27.8784l-614.4 87.77216a28.16 28.16 0 0 0-24.17664 27.8784v133.82656zM153.6 949.76c43.8272 0 79.36-35.5328 79.36-79.36 0-43.8272-35.5328-79.36-79.36-79.36-43.8272 0-79.36 35.5328-79.36 79.36 0 43.8272 35.5328 79.36 79.36 79.36z m716.8-153.6c43.8272 0 79.36-35.5328 79.36-79.36 0-43.8272-35.5328-79.36-79.36-79.36-43.8272 0-79.36 35.5328-79.36 79.36 0 43.8272 35.5328 79.36 79.36 79.36z" fill="#000000" p-id="10199"></path></svg>