<?xml version="1.0" standalone="no"?><!DOCTYPE svg PUBLIC "-//W3C//DTD SVG 1.1//EN" "http://www.w3.org/Graphics/SVG/1.1/DTD/svg11.dtd"><svg t="1686745037652" class="icon" viewBox="0 0 1024 1024" version="1.1" xmlns="http://www.w3.org/2000/svg" p-id="8058" xmlns:xlink="http://www.w3.org/1999/xlink" width="200" height="200"><path d="M510.742556 625.888364a180.856429 180.856429 0 0 0 180.287698-181.99389V180.572063a180.287698 180.287698 0 1 0-361.144127 0V443.894474A180.856429 180.856429 0 0 0 510.742556 625.888364zM387.327949 180.572063a123.414607 123.414607 0 1 1 247.397945 0V443.894474a123.414607 123.414607 0 0 1-247.397945 0z" p-id="8059"></path><path d="M778.614814 553.659539A28.436545 28.436545 0 0 0 738.234919 569.015274a252.516523 252.516523 0 0 1-454.984726 0 28.436545 28.436545 0 1 0-51.754513 23.317967 308.252152 308.252152 0 0 0 250.810331 179.150236V967.126909H396.996375a28.436545 28.436545 0 1 0 0 56.873091h227.492363a28.436545 28.436545 0 1 0 0-56.873091H539.179102v-195.643432A308.252152 308.252152 0 0 0 795.10801 591.76451a28.436545 28.436545 0 0 0-16.493196-38.104971z" p-id="8060"></path></svg>